<svg width="160" height="30" viewBox="0 0 160 30" fill="none" xmlns="http://www.w3.org/2000/svg">
<g id="gomezbuzz">
<path d="M10.7145 12.0732C10.6189 11.8533 10.485 11.6285 10.3129 11.3991C10.1503 11.1696 9.95906 10.9592 9.73913 10.7679C9.5192 10.5767 9.28014 10.4237 9.02196 10.309C8.76378 10.1846 8.49126 10.1225 8.20439 10.1225C7.81234 10.1225 7.4442 10.2851 7.09996 10.6102C6.75571 10.9353 6.4545 11.3704 6.19632 11.9154C5.93814 12.4509 5.73256 13.0677 5.57956 13.7657C5.43613 14.4542 5.36441 15.1714 5.36441 15.9172C5.36441 16.3762 5.40266 16.8113 5.47916 17.2225C5.56522 17.6241 5.69431 17.9779 5.86643 18.2839C6.03855 18.5898 6.25848 18.8337 6.52622 19.0154C6.80353 19.1971 7.13342 19.2879 7.51591 19.2879C8.08965 19.2879 8.61557 19.111 9.09368 18.7572C9.57179 18.3938 9.97819 17.9253 10.3129 17.3515C10.3224 17.1507 10.3368 16.9117 10.3559 16.6344C10.375 16.3571 10.3989 16.0224 10.4276 15.6303C10.4563 15.2287 10.4898 14.7602 10.528 14.2247C10.5758 13.6796 10.6332 13.0342 10.7001 12.2883L10.7145 12.0732ZM15.4621 20.7366C15.3665 21.6832 15.1514 22.5677 14.8167 23.3901C14.482 24.2124 14.0565 24.9631 13.5401 25.642C13.0333 26.3305 12.45 26.9425 11.7902 27.4779C11.14 28.023 10.4467 28.482 9.71044 28.8549C8.98371 29.2278 8.23308 29.5099 7.45854 29.7012C6.684 29.902 5.91902 30.0024 5.1636 30.0024C4.76199 30.0024 4.35081 29.988 3.93008 29.9593C3.50934 29.9307 3.09816 29.8733 2.69655 29.7872C2.29493 29.7107 1.91245 29.596 1.54908 29.443C1.18572 29.2995 0.860601 29.1131 0.573734 28.8836V28.8692C0.573734 28.8214 0.607202 28.6541 0.674137 28.3672C0.750635 28.0804 0.836695 27.7409 0.932317 27.3489C1.0375 26.9664 1.14269 26.5695 1.24787 26.1584C1.36262 25.7472 1.45824 25.3934 1.53474 25.0969C1.57299 24.9631 1.61124 24.8722 1.64948 24.8244C1.68773 24.7766 1.73076 24.7527 1.77857 24.7527C1.83595 24.7527 1.86942 24.7575 1.87898 24.767C2.15628 24.9487 2.41446 25.0969 2.65352 25.2117C2.90214 25.336 3.16032 25.4316 3.42806 25.4986C3.70536 25.5751 4.00657 25.6277 4.33169 25.6563C4.65681 25.685 5.03451 25.6994 5.46481 25.6994C6.13417 25.6994 6.72703 25.5703 7.24339 25.3121C7.75975 25.0539 8.20439 24.7192 8.57732 24.3081C8.95025 23.8969 9.24668 23.4427 9.46661 22.9454C9.6961 22.4578 9.85388 21.9749 9.93994 21.4968C9.25146 21.9558 8.55341 22.3287 7.84581 22.6155C7.1382 22.9024 6.42582 23.0458 5.70865 23.0458C4.72374 23.0458 3.8727 22.845 3.15554 22.4434C2.43837 22.0514 1.84551 21.5207 1.37696 20.8513C0.908412 20.182 0.55939 19.417 0.329897 18.5564C0.109966 17.6862 0 16.7778 0 15.8311C0 15.0853 0.0669356 14.3347 0.200807 13.5792C0.34424 12.8143 0.549828 12.078 0.817571 11.3704C1.09488 10.6628 1.43433 10.003 1.83595 9.39098C2.23756 8.76944 2.70133 8.22917 3.22725 7.77019C3.75318 7.3112 4.33647 6.95262 4.97714 6.69444C5.61781 6.42669 6.31585 6.29282 7.07127 6.29282C7.89362 6.29282 8.65382 6.4745 9.35186 6.83787C10.0595 7.20123 10.7001 7.65066 11.2739 8.18614C11.293 8.01402 11.3073 7.88015 11.3169 7.78453C11.3265 7.67935 11.3504 7.59807 11.3886 7.54069C11.4269 7.48332 11.489 7.44029 11.5751 7.4116C11.6707 7.38292 11.8046 7.34945 11.9767 7.3112C12.0819 7.29208 12.2731 7.25383 12.5504 7.19645C12.8277 7.12952 13.1576 7.05302 13.5401 6.96696C13.9226 6.8809 14.3433 6.79006 14.8023 6.69444C15.2613 6.59881 15.7251 6.49841 16.1936 6.39323C16.3084 6.36454 16.4136 6.3502 16.5092 6.3502C16.8056 6.3502 16.9538 6.54144 16.9538 6.92393C16.9538 6.97174 16.9538 7.01955 16.9538 7.06736C16.9538 7.10561 16.9491 7.14864 16.9395 7.19645L15.4621 20.7366Z" fill="#BAC4D1"/>
<path d="M26.736 23.0458C25.3877 23.0458 24.202 22.8259 23.1788 22.3861C22.1652 21.9462 21.3142 21.3629 20.6257 20.6362C19.9372 19.8999 19.4209 19.0584 19.0766 18.1117C18.7324 17.1555 18.5603 16.1658 18.5603 15.1427C18.5603 14.1195 18.7276 13.1489 19.0623 12.231C19.397 11.3034 19.8655 10.4763 20.468 9.74957C21.0704 9.01328 21.7923 8.40129 22.6338 7.91362C23.4753 7.41638 24.4028 7.08171 25.4164 6.90959C25.5694 6.90002 25.6459 6.86656 25.6459 6.80918C25.6459 6.704 25.6316 6.60838 25.6029 6.52232C25.5837 6.42669 25.5742 6.34541 25.5742 6.27848C25.5742 6.17329 25.5933 6.10158 25.6316 6.06333C25.6698 6.02508 25.7128 6.00596 25.7606 6.00596C27.587 6.00596 29.1409 6.21632 30.4222 6.63706C31.7036 7.04824 32.7459 7.61241 33.5491 8.32958C34.3523 9.04674 34.9356 9.893 35.299 10.8683C35.6623 11.8437 35.844 12.8908 35.844 14.0095C35.844 15.4343 35.605 16.7061 35.1269 17.8249C34.6487 18.9437 33.9937 19.8903 33.1618 20.6649C32.3395 21.4394 31.3737 22.0275 30.2645 22.4291C29.1648 22.8403 27.9886 23.0458 26.736 23.0458ZM24.0825 14.9849C24.0825 15.5012 24.1351 16.0128 24.2403 16.5196C24.355 17.0264 24.5367 17.4854 24.7853 17.8966C25.0435 18.3078 25.3782 18.6424 25.7893 18.9006C26.2005 19.1492 26.7121 19.2735 27.3241 19.2735C27.7639 19.2544 28.1464 19.1588 28.4715 18.9867C28.8062 18.805 29.0931 18.5755 29.3321 18.2982C29.5712 18.0113 29.7672 17.691 29.9202 17.3372C30.0828 16.9834 30.2071 16.62 30.2931 16.2471C30.3888 15.8646 30.4557 15.4917 30.4939 15.1283C30.5322 14.765 30.5513 14.4351 30.5513 14.1386C30.5513 13.6414 30.4748 13.1537 30.3218 12.6756C30.1784 12.1975 29.9632 11.7768 29.6764 11.4134C29.3895 11.05 29.0309 10.7584 28.6006 10.5385C28.1799 10.309 27.6922 10.1942 27.1376 10.1942C26.5639 10.1942 26.081 10.3663 25.6889 10.7106C25.2969 11.0452 24.9813 11.4612 24.7423 11.9584C24.5128 12.4557 24.3454 12.9816 24.2403 13.5362C24.1351 14.0813 24.0825 14.5642 24.0825 14.9849Z" fill="#BAC4D1"/>
<path d="M58.5639 22.8164C58.4587 22.845 58.32 22.8881 58.1479 22.9454C57.9758 23.0124 57.8085 23.0458 57.6459 23.0458C57.512 23.0458 57.3925 23.0124 57.2873 22.9454C57.1917 22.8785 57.1439 22.7638 57.1439 22.6012V22.5151C57.2108 21.8171 57.2682 21.2529 57.316 20.8226C57.3638 20.3828 57.4021 20.029 57.4307 19.7612C57.4594 19.4935 57.4833 19.2927 57.5025 19.1588C57.5216 19.0154 57.5407 18.8863 57.5598 18.7715C57.579 18.6472 57.5933 18.5134 57.6029 18.3699C57.622 18.2265 57.6459 18.0257 57.6746 17.7675C57.7033 17.4998 57.7367 17.1507 57.775 16.7204C57.8228 16.2806 57.8802 15.7068 57.9471 14.9992C57.9854 14.6167 58.0236 14.239 58.0619 13.8661C58.1097 13.4836 58.1336 13.1346 58.1336 12.819C58.1336 12.4174 58.1097 12.0541 58.0619 11.7289C58.0236 11.3943 57.9471 11.1122 57.8324 10.8827C57.7272 10.6436 57.579 10.4572 57.3877 10.3233C57.1965 10.1894 56.9526 10.1225 56.6562 10.1225C56.4745 10.1225 56.2355 10.1607 55.939 10.2372C55.6522 10.3137 55.3605 10.4524 55.0641 10.6532C54.7677 10.8444 54.4999 11.1026 54.2609 11.4277C54.0218 11.7433 53.8688 12.1449 53.8019 12.6326V12.69C53.6871 13.78 53.582 14.7267 53.4863 15.5299C53.4003 16.3236 53.3238 17.0073 53.2568 17.581C53.1899 18.1548 53.1325 18.6329 53.0847 19.0154C53.0465 19.3979 53.013 19.723 52.9843 19.9907C52.9556 20.2489 52.9317 20.464 52.9126 20.6362C52.903 20.8083 52.8983 20.9708 52.8983 21.1238C52.8983 21.2003 52.8983 21.2673 52.8983 21.3246C52.9078 21.3725 52.9126 21.4155 52.9126 21.4537C52.9126 21.5302 52.8743 21.5972 52.7978 21.6545C52.7309 21.7024 52.5731 21.7645 52.3245 21.841L48.9538 22.8164C48.8486 22.845 48.71 22.8881 48.5379 22.9454C48.3658 23.0124 48.1984 23.0458 48.0359 23.0458C47.902 23.0458 47.7825 23.0124 47.6773 22.9454C47.5817 22.8785 47.5338 22.7638 47.5338 22.6012V22.5151C47.6008 21.8171 47.6534 21.2529 47.6916 20.8226C47.7394 20.3828 47.7777 20.029 47.8064 19.7612C47.8446 19.4935 47.8733 19.2927 47.8924 19.1588C47.9115 19.0154 47.9259 18.8863 47.9355 18.7715C47.9546 18.6472 47.9737 18.5134 47.9928 18.3699C48.012 18.2265 48.0311 18.0257 48.0502 17.7675C48.0789 17.4998 48.1124 17.1507 48.1506 16.7204C48.1984 16.2806 48.2558 15.7068 48.3227 14.9992C48.361 14.6167 48.3992 14.239 48.4375 13.8661C48.4853 13.4836 48.5092 13.1346 48.5092 12.819C48.5092 12.4174 48.4901 12.0541 48.4518 11.7289C48.4136 11.3943 48.3419 11.1122 48.2367 10.8827C48.141 10.6436 48.0072 10.4572 47.8351 10.3233C47.6629 10.1894 47.443 10.1225 47.1753 10.1225C46.984 10.1225 46.7211 10.1703 46.3864 10.2659C46.0613 10.3616 45.7314 10.5193 45.3967 10.7393C45.0716 10.9592 44.7799 11.2508 44.5217 11.6142C44.2731 11.968 44.1297 12.4079 44.0914 12.9338C44.0149 13.6414 43.9528 14.2247 43.905 14.6837C43.8572 15.1331 43.8189 15.506 43.7902 15.8025C43.7615 16.0893 43.7376 16.3236 43.7185 16.5053C43.709 16.6774 43.6994 16.84 43.6898 16.993C43.6803 17.0312 43.6659 17.1412 43.6468 17.3229C43.6277 17.495 43.6038 17.7053 43.5751 17.954C43.556 18.193 43.532 18.456 43.5034 18.7428C43.4842 19.0201 43.4651 19.2831 43.446 19.5317C43.4269 19.7708 43.4077 19.9812 43.3886 20.1628C43.3791 20.335 43.3743 20.4401 43.3743 20.4784V20.7366C43.3743 20.8322 43.3695 20.9135 43.3599 20.9804C43.3504 21.0473 43.3217 21.1095 43.2739 21.1669C43.2261 21.2242 43.1543 21.2768 43.0587 21.3246C42.9727 21.3725 42.8484 21.4251 42.6858 21.4824L38.9278 22.8164C38.8227 22.8546 38.684 22.9024 38.5119 22.9598C38.3398 23.0172 38.1724 23.0458 38.0099 23.0458C37.876 23.0458 37.7565 23.0124 37.6513 22.9454C37.5557 22.8785 37.5078 22.7638 37.5078 22.6012L38.7987 7.97099C38.8274 7.65544 38.8609 7.44029 38.8991 7.32554C38.947 7.20123 39.0569 7.11996 39.229 7.08171C40.0992 6.90959 40.9885 6.73747 41.8969 6.56535C42.8053 6.38366 43.6946 6.15417 44.5648 5.87686C44.6413 5.87686 44.6843 5.89121 44.6939 5.9199C44.713 5.93902 44.7225 5.97249 44.7225 6.0203L44.5361 8.11443C44.8899 7.93274 45.2867 7.73672 45.7266 7.52635C46.1664 7.30642 46.6254 7.10561 47.1035 6.92393C47.5912 6.74225 48.0837 6.59403 48.5809 6.47929C49.0877 6.35498 49.5802 6.29282 50.0583 6.29282C50.7181 6.29282 51.3253 6.44582 51.8799 6.75181C52.444 7.04824 52.9078 7.54547 53.2712 8.24352C53.7015 7.96621 54.1557 7.70803 54.6338 7.46898C55.1215 7.22992 55.6139 7.02433 56.1112 6.85221C56.618 6.68009 57.1248 6.54622 57.6316 6.4506C58.1384 6.35498 58.6308 6.30717 59.1089 6.30717C59.7113 6.30717 60.2803 6.39323 60.8158 6.56535C61.3513 6.73747 61.815 7.01955 62.2071 7.4116C62.6087 7.80365 62.9242 8.31523 63.1537 8.94634C63.3832 9.56789 63.498 10.3281 63.498 11.2269C63.498 11.4564 63.4932 11.6955 63.4836 11.9441C63.4741 12.1832 63.455 12.4318 63.4263 12.69L62.7665 18.8289C62.7187 19.2305 62.69 19.6034 62.6804 19.9477C62.6708 20.2824 62.6661 20.6744 62.6661 21.1238C62.6661 21.2003 62.6661 21.2673 62.6661 21.3246C62.6756 21.3725 62.6804 21.4155 62.6804 21.4537C62.6804 21.5398 62.6422 21.6067 62.5657 21.6545C62.4987 21.7024 62.341 21.7645 62.0923 21.841L58.5639 22.8164Z" fill="#BAC4D1"/>
<path d="M74.2125 6.29282C75.1209 6.29282 75.9432 6.46494 76.6795 6.80918C77.4254 7.14386 78.0613 7.58372 78.5872 8.12877C79.1227 8.66426 79.5338 9.26667 79.8207 9.93603C80.1076 10.6054 80.251 11.2747 80.251 11.9441C80.251 12.537 80.0693 13.1346 79.706 13.737C79.3426 14.3299 78.831 14.8654 78.1712 15.3435C77.521 15.8216 76.7369 16.2089 75.8189 16.5053C74.9009 16.8017 73.8921 16.9499 72.7925 16.9499C72.2187 16.9499 71.6163 16.8926 70.9852 16.7778C71.0235 17.189 71.143 17.5428 71.3438 17.8392C71.5446 18.1356 71.798 18.3795 72.104 18.5707C72.41 18.762 72.7542 18.9054 73.1367 19.001C73.5288 19.0871 73.9304 19.1301 74.3416 19.1301C74.8005 19.1301 75.2404 19.0919 75.6611 19.0154C76.0914 18.9293 76.5026 18.8193 76.8947 18.6855C77.2867 18.5516 77.6644 18.4034 78.0278 18.2408C78.3912 18.0783 78.7354 17.9157 79.0605 17.7532C79.1466 17.734 79.2183 17.7197 79.2757 17.7101C79.3426 17.691 79.4047 17.6814 79.4621 17.6814C79.4621 17.6814 79.4573 17.7579 79.4478 17.9109C79.4478 18.0639 79.4478 18.2791 79.4478 18.5564C79.4478 18.8337 79.443 19.1684 79.4334 19.5604C79.4334 19.9525 79.4287 20.3875 79.4191 20.8657C79.4478 20.9135 79.4669 20.9613 79.4765 21.0091C79.486 21.0569 79.4908 21.0952 79.4908 21.1238C79.4908 21.2386 79.3856 21.3629 79.1753 21.4968C78.9649 21.6306 78.6876 21.7693 78.3433 21.9127C78.0087 22.0562 77.6214 22.1948 77.1815 22.3287C76.7512 22.4626 76.3114 22.5821 75.8619 22.6873C75.4125 22.802 74.9774 22.8881 74.5567 22.9454C74.136 23.0124 73.7678 23.0458 73.4523 23.0458C72.4195 23.0458 71.4155 22.8642 70.4402 22.5008C69.4744 22.147 68.6138 21.6354 67.8584 20.9661C67.1125 20.2967 66.5149 19.4839 66.0654 18.5277C65.616 17.5715 65.3913 16.4957 65.3913 15.3004C65.3913 14.0478 65.6065 12.8764 66.0368 11.7863C66.4671 10.6867 67.0695 9.73044 67.844 8.91765C68.6281 8.10486 69.5604 7.4642 70.641 6.99565C71.7215 6.5271 72.912 6.29282 74.2125 6.29282ZM74.0403 10.1082C73.6483 10.1082 73.2849 10.1942 72.9502 10.3663C72.6251 10.5289 72.3239 10.7679 72.0466 11.0835C71.7789 11.3895 71.5446 11.7624 71.3438 12.2023C71.143 12.6326 70.9804 13.1107 70.8561 13.6366C71.841 13.4645 72.6586 13.2828 73.3088 13.0916C73.9591 12.9003 74.4802 12.7091 74.8723 12.5178C75.2643 12.317 75.5416 12.121 75.7042 11.9298C75.8667 11.7289 75.948 11.5377 75.948 11.356C75.948 11.1839 75.8811 11.0213 75.7472 10.8683C75.6229 10.7154 75.4651 10.5815 75.2739 10.4667C75.0826 10.352 74.8723 10.2659 74.6428 10.2086C74.4228 10.1416 74.222 10.1082 74.0403 10.1082Z" fill="#BAC4D1"/>
<path d="M83.9803 22.3C83.789 22.3 83.5834 22.2904 83.3635 22.2713C83.1531 22.2522 82.9571 22.2187 82.7754 22.1709C82.6033 22.1135 82.4551 22.0418 82.3308 21.9558C82.216 21.8697 82.1587 21.7549 82.1587 21.6115C82.1587 21.602 82.1635 21.5876 82.173 21.5685C82.1826 21.5494 82.1874 21.5302 82.1874 21.5111L87.2506 11.1265C86.8489 11.1265 86.3995 11.1361 85.9023 11.1552C85.4051 11.1648 84.903 11.1791 84.3962 11.1982C83.899 11.2078 83.4209 11.2174 82.9619 11.2269C82.5125 11.2365 82.13 11.2413 81.8144 11.2413C81.7188 11.2413 81.6471 11.2126 81.5993 11.1552C81.5515 11.0883 81.5276 11.0166 81.5276 10.9401V10.8827L82.9762 7.42595C83.0527 7.16777 83.1962 7.00043 83.4065 6.92393C83.6169 6.84743 83.8273 6.80918 84.0377 6.80918C85.7206 6.80918 87.3701 6.83787 88.9861 6.89524C90.6117 6.95262 92.2612 6.9813 93.9346 6.9813C94.0397 6.9813 94.1449 7.01477 94.2501 7.08171C94.3649 7.14864 94.4222 7.22992 94.4222 7.32554C94.4222 7.3351 94.4127 7.36857 94.3935 7.42595L89.8467 17.3515C89.8467 17.3707 89.8706 17.385 89.9184 17.3946C89.9758 17.4041 90.0427 17.4137 90.1192 17.4233C90.2053 17.4328 90.2866 17.4376 90.3631 17.4376C90.4491 17.4376 90.5208 17.4376 90.5782 17.4376C91.1806 17.4376 91.7639 17.4233 92.3281 17.3946C92.8923 17.3659 93.4612 17.3515 94.035 17.3515C94.1401 17.3515 94.231 17.3754 94.3075 17.4233C94.384 17.4711 94.4222 17.5667 94.4222 17.7101C94.4222 17.7292 94.4127 17.7388 94.3935 17.7388L92.5863 21.5111C92.5002 21.6928 92.3472 21.8362 92.1273 21.9414C91.9074 22.0466 91.6396 22.1279 91.3241 22.1852C91.0085 22.2331 90.6547 22.2665 90.2627 22.2857C89.8802 22.2952 89.4833 22.3 89.0722 22.3H83.9803Z" fill="#BAC4D1"/>
<path d="M102.325 17.6241C102.421 17.8153 102.555 18.0113 102.727 18.2121C102.909 18.4034 103.114 18.5803 103.344 18.7428C103.583 18.9054 103.841 19.0393 104.118 19.1445C104.396 19.2401 104.683 19.2879 104.979 19.2879C105.39 19.2879 105.777 19.1301 106.141 18.8146C106.504 18.4894 106.82 18.0591 107.087 17.5237C107.365 16.9786 107.58 16.3619 107.733 15.6734C107.886 14.9753 107.962 14.2534 107.962 13.5075C107.962 13.0485 107.919 12.6135 107.833 12.2023C107.757 11.7911 107.632 11.4325 107.46 11.1265C107.288 10.8205 107.063 10.5767 106.786 10.395C106.518 10.2133 106.193 10.1225 105.811 10.1225C105.189 10.1225 104.62 10.3042 104.104 10.6675C103.588 11.0309 103.153 11.4947 102.799 12.0588L102.325 17.6241ZM96.9897 23.0028C96.8558 23.0315 96.7506 23.0458 96.6741 23.0458C96.3681 23.0458 96.2151 22.8642 96.2151 22.5008C96.2151 22.453 96.2151 22.4052 96.2151 22.3574C96.2247 22.3096 96.2343 22.257 96.2438 22.1996L97.9077 1.90376C97.9077 1.87507 97.9077 1.84639 97.9077 1.8177C97.9172 1.78901 97.922 1.76511 97.922 1.74598C97.922 1.70773 97.9172 1.67427 97.9077 1.64558C97.9077 1.61689 97.9077 1.59299 97.9077 1.57386C97.9077 1.4878 97.9363 1.42087 97.9937 1.37305C98.0607 1.31568 98.2232 1.25353 98.4814 1.18659L102.512 0.225587C102.617 0.206463 102.756 0.163433 102.928 0.0964972C103.1 0.0295616 103.267 -0.00390625 103.43 -0.00390625C103.554 -0.00390625 103.669 0.0247804 103.774 0.0821538C103.889 0.139527 103.946 0.249493 103.946 0.412051C103.946 0.431175 103.941 0.4503 103.932 0.469424C103.932 0.488549 103.932 0.507673 103.932 0.526797C103.922 0.574609 103.898 0.784978 103.86 1.1579C103.822 1.53083 103.779 1.98504 103.731 2.52052C103.683 3.04645 103.631 3.6154 103.573 4.22738C103.516 4.8298 103.463 5.39875 103.416 5.93424C103.368 6.46016 103.325 6.90959 103.286 7.28251C103.248 7.65544 103.224 7.86581 103.215 7.91362C103.913 7.45463 104.635 7.07214 105.381 6.76615C106.126 6.4506 106.872 6.29282 107.618 6.29282C108.603 6.29282 109.454 6.49841 110.171 6.90959C110.888 7.3112 111.481 7.85147 111.95 8.53038C112.418 9.19974 112.763 9.97428 112.983 10.854C113.212 11.7337 113.327 12.6421 113.327 13.5792C113.327 14.3347 113.255 15.0949 113.112 15.8598C112.978 16.6152 112.777 17.342 112.509 18.04C112.251 18.7381 111.921 19.3931 111.52 20.0051C111.127 20.617 110.673 21.1477 110.157 21.5972C109.65 22.0466 109.081 22.4004 108.45 22.6586C107.819 22.9168 107.135 23.0458 106.399 23.0458C105.51 23.0458 104.697 22.8498 103.961 22.4578C103.224 22.0657 102.541 21.5589 101.909 20.9374C101.89 21.1669 101.876 21.3486 101.866 21.4824C101.857 21.6163 101.823 21.7215 101.766 21.798C101.718 21.8649 101.642 21.9223 101.537 21.9701C101.431 22.0083 101.274 22.0514 101.063 22.0992C100.958 22.1279 100.772 22.1757 100.504 22.2426C100.246 22.3 99.9301 22.3669 99.5572 22.4434C99.1938 22.5295 98.7874 22.6203 98.338 22.716C97.8981 22.8116 97.4487 22.9072 96.9897 23.0028Z" fill="#BAC4D1"/>
<path d="M130.367 20.5214C130.338 20.837 130.3 21.0569 130.252 21.1812C130.204 21.296 130.099 21.3725 129.936 21.4107C129.124 21.6402 128.273 21.8745 127.383 22.1135C126.504 22.343 125.648 22.649 124.816 23.0315C124.787 23.0411 124.744 23.0458 124.687 23.0458C124.61 23.0458 124.562 23.0267 124.543 22.9885C124.534 22.9502 124.529 22.9072 124.529 22.8594C124.529 22.8403 124.529 22.8068 124.529 22.759C124.538 22.7112 124.553 22.6203 124.572 22.4865C124.591 22.3621 124.615 22.1852 124.644 21.9558C124.682 21.7263 124.73 21.4203 124.787 21.0378C123.716 21.7358 122.765 22.2426 121.933 22.5582C121.11 22.8833 120.379 23.0458 119.738 23.0458C118.141 23.0458 116.975 22.6634 116.238 21.8984C115.512 21.1238 115.148 19.9716 115.148 18.4416C115.148 18.1643 115.153 17.8822 115.163 17.5954C115.172 17.2989 115.201 16.9977 115.249 16.6917C115.354 15.5634 115.445 14.5976 115.521 13.7944C115.598 12.9816 115.66 12.2931 115.708 11.7289C115.756 11.1648 115.794 10.7058 115.823 10.352C115.861 9.98862 115.889 9.68741 115.909 9.44836C115.937 9.2093 115.956 9.01328 115.966 8.86028C115.985 8.69772 116.004 8.53995 116.023 8.38695C116.062 8.08096 116.095 7.86581 116.124 7.7415C116.162 7.61719 116.272 7.53591 116.454 7.49766C116.903 7.4116 117.329 7.3351 117.73 7.26817C118.141 7.19167 118.543 7.11517 118.935 7.03868C119.337 6.95262 119.743 6.86177 120.154 6.76615C120.565 6.67053 121 6.55578 121.459 6.42191C121.479 6.42191 121.498 6.42191 121.517 6.42191C121.536 6.41235 121.555 6.40757 121.574 6.40757C121.689 6.40757 121.746 6.44582 121.746 6.52232V6.551C121.708 6.87612 121.675 7.18211 121.646 7.46898C121.617 7.75584 121.589 8.05227 121.56 8.35826C121.531 8.65469 121.498 8.97503 121.459 9.31927C121.431 9.66351 121.393 10.0651 121.345 10.5241C121.297 10.9735 121.24 11.4947 121.173 12.0875C121.106 12.6804 121.024 13.3689 120.929 14.153C120.871 14.7267 120.814 15.3004 120.757 15.8742C120.699 16.4383 120.671 16.9643 120.671 17.4519C120.671 17.7197 120.69 17.9683 120.728 18.1978C120.766 18.4177 120.833 18.609 120.929 18.7715C121.034 18.9245 121.168 19.0441 121.33 19.1301C121.493 19.2162 121.703 19.2592 121.961 19.2592C122.162 19.2592 122.435 19.2162 122.779 19.1301C123.123 19.0345 123.467 18.8767 123.812 18.6568C124.156 18.4273 124.457 18.1309 124.715 17.7675C124.983 17.3946 125.136 16.926 125.174 16.3619C125.241 15.4152 125.299 14.6263 125.346 13.9952C125.404 13.3545 125.452 12.819 125.49 12.3887C125.528 11.9489 125.562 11.5807 125.59 11.2843C125.619 10.9879 125.643 10.7058 125.662 10.438C125.691 10.1607 125.715 9.8691 125.734 9.5631C125.753 9.24755 125.772 8.8555 125.791 8.38695C125.82 8.0714 125.853 7.85625 125.892 7.7415C125.939 7.61719 126.049 7.53591 126.221 7.49766C127.092 7.32554 127.981 7.15342 128.889 6.9813C129.798 6.79962 130.687 6.57013 131.557 6.29282C131.634 6.29282 131.677 6.30717 131.686 6.33585C131.705 6.35498 131.715 6.38844 131.715 6.43626L130.367 20.5214Z" fill="#BAC4D1"/>
<path d="M135.502 22.3C135.31 22.3 135.105 22.2904 134.885 22.2713C134.674 22.2522 134.478 22.2187 134.297 22.1709C134.125 22.1135 133.976 22.0418 133.852 21.9558C133.737 21.8697 133.68 21.7549 133.68 21.6115C133.68 21.602 133.685 21.5876 133.694 21.5685C133.704 21.5494 133.709 21.5302 133.709 21.5111L138.772 11.1265C138.37 11.1265 137.921 11.1361 137.424 11.1552C136.926 11.1648 136.424 11.1791 135.918 11.1982C135.42 11.2078 134.942 11.2174 134.483 11.2269C134.034 11.2365 133.651 11.2413 133.336 11.2413C133.24 11.2413 133.168 11.2126 133.121 11.1552C133.073 11.0883 133.049 11.0166 133.049 10.9401V10.8827L134.498 7.42595C134.574 7.16777 134.717 7.00043 134.928 6.92393C135.138 6.84743 135.349 6.80918 135.559 6.80918C137.242 6.80918 138.891 6.83787 140.507 6.89524C142.133 6.95262 143.782 6.9813 145.456 6.9813C145.561 6.9813 145.666 7.01477 145.771 7.08171C145.886 7.14864 145.944 7.22992 145.944 7.32554C145.944 7.3351 145.934 7.36857 145.915 7.42595L141.368 17.3515C141.368 17.3707 141.392 17.385 141.44 17.3946C141.497 17.4041 141.564 17.4137 141.641 17.4233C141.727 17.4328 141.808 17.4376 141.884 17.4376C141.97 17.4376 142.042 17.4376 142.1 17.4376C142.702 17.4376 143.285 17.4233 143.849 17.3946C144.414 17.3659 144.983 17.3515 145.556 17.3515C145.661 17.3515 145.752 17.3754 145.829 17.4233C145.905 17.4711 145.944 17.5667 145.944 17.7101C145.944 17.7292 145.934 17.7388 145.915 17.7388L144.108 21.5111C144.022 21.6928 143.869 21.8362 143.649 21.9414C143.429 22.0466 143.161 22.1279 142.845 22.1852C142.53 22.2331 142.176 22.2665 141.784 22.2857C141.401 22.2952 141.005 22.3 140.593 22.3H135.502Z" fill="#BAC4D1"/>
<path d="M149.558 22.3C149.367 22.3 149.161 22.2904 148.941 22.2713C148.731 22.2522 148.535 22.2187 148.353 22.1709C148.181 22.1135 148.033 22.0418 147.909 21.9558C147.794 21.8697 147.736 21.7549 147.736 21.6115C147.736 21.602 147.741 21.5876 147.751 21.5685C147.76 21.5494 147.765 21.5302 147.765 21.5111L152.828 11.1265C152.427 11.1265 151.977 11.1361 151.48 11.1552C150.983 11.1648 150.481 11.1791 149.974 11.1982C149.477 11.2078 148.999 11.2174 148.54 11.2269C148.09 11.2365 147.708 11.2413 147.392 11.2413C147.297 11.2413 147.225 11.2126 147.177 11.1552C147.129 11.0883 147.105 11.0166 147.105 10.9401V10.8827L148.554 7.42595C148.631 7.16777 148.774 7.00043 148.984 6.92393C149.195 6.84743 149.405 6.80918 149.615 6.80918C151.298 6.80918 152.948 6.83787 154.564 6.89524C156.189 6.95262 157.839 6.9813 159.512 6.9813C159.618 6.9813 159.723 7.01477 159.828 7.08171C159.943 7.14864 160 7.22992 160 7.32554C160 7.3351 159.99 7.36857 159.971 7.42595L155.424 17.3515C155.424 17.3707 155.448 17.385 155.496 17.3946C155.554 17.4041 155.62 17.4137 155.697 17.4233C155.783 17.4328 155.864 17.4376 155.941 17.4376C156.027 17.4376 156.099 17.4376 156.156 17.4376C156.758 17.4376 157.342 17.4233 157.906 17.3946C158.47 17.3659 159.039 17.3515 159.613 17.3515C159.718 17.3515 159.809 17.3754 159.885 17.4233C159.962 17.4711 160 17.5667 160 17.7101C160 17.7292 159.99 17.7388 159.971 17.7388L158.164 21.5111C158.078 21.6928 157.925 21.8362 157.705 21.9414C157.485 22.0466 157.217 22.1279 156.902 22.1852C156.586 22.2331 156.232 22.2665 155.84 22.2857C155.458 22.2952 155.061 22.3 154.65 22.3H149.558Z" fill="#BAC4D1"/>
</g>
</svg>
